<?xml version="1.0" encoding="utf-8"?>
<!-- Generator: Adobe Illustrator 24.1.1, SVG Export Plug-In . SVG Version: 6.00 Build 0)  -->
<svg version="1.1" id="Capa_1" xmlns="http://www.w3.org/2000/svg" xmlns:xlink="http://www.w3.org/1999/xlink" x="0px" y="0px"
	 viewBox="0 0 611.98 611.98" style="enable-background:new 0 0 611.98 611.98;" xml:space="preserve">
<style type="text/css">
	.st0{stroke:#f50049}
</style>
<g>
	<g id="twitter">
		<g>
			<path fill="#f50049" class="st0" d="M605.95,114.16c-4.91-3.36-11.39-3.25-16.14,0.32c-3.29,2.46-8.18,4.63-13.9,6.53
				c18.82-23.34,19.1-38.94,18.82-42.79c-0.38-4.99-3.41-9.42-7.95-11.54c-4.55-2.14-9.88-1.66-13.95,1.28
				c-25.66,18.36-51.33,22.36-66.31,22.88c-24.38-22.65-55.91-35.06-89.41-35.06c-72.49,0-131.48,58.96-131.48,131.45
				c0,5.24,0.3,10.49,0.93,15.67C165.58,199.9,67.46,85.87,66.47,84.7c-2.9-3.44-7.27-5.26-11.79-4.85
				c-4.48,0.4-8.49,2.94-10.76,6.82C13.13,139.31,25.7,189.18,46.8,224.06c-3.92-2.11-8.67-2.25-12.75-0.21
				c-4.63,2.3-7.61,7-7.7,12.19c-0.9,55.3,24.35,88.44,49.83,107.75c-1.87,0.76-3.58,1.94-4.98,3.48
				c-3.31,3.63-4.47,8.75-3.01,13.45c17.71,57.13,59.32,78.54,88.51,86.56c-33.48,23.61-74.89,29.14-106.36,29.14
				c-20.1,0-33.94-2.39-34.08-2.41c-6.27-1.11-12.56,2.26-15.13,8.14c-2.55,5.88-0.75,12.74,4.38,16.6
				c63.15,47.47,139.4,57.45,192.25,57.45c41.77,0,70.8-6.1,72.27-6.42c271.31-63.35,281.61-306.62,281.18-350.94
				c50.86-46.73,58.96-64.96,60.23-69.51C613.07,123.6,610.85,117.52,605.95,114.16z M527.9,182.6c-3.15,2.86-4.81,6.99-4.52,11.23
				c0.18,2.63,15.01,264.8-259.36,328.88c-0.26,0.05-27.6,5.76-66.24,5.76c-36,0-83.66-4.92-129.13-24.88
				c41.63-2.66,92.69-15.44,129.41-56.06c3.68-4.08,4.58-9.92,2.34-14.94c-2.23-5.01-7.24-8.24-12.72-8.24
				c-2.58,0-57.17-0.65-84.49-51.4c12.65,0.4,24.12-1.47,32.62-5.34c5.45-2.48,8.67-8.17,8.03-14.12
				c-0.64-5.95-5.05-10.82-10.9-12.08c-2.95-0.64-65.79-14.95-77.13-81.23c9.85,3.76,21.83,6.37,33.42,4.66
				c5.38-0.8,9.81-4.67,11.3-9.9c1.5-5.23-0.21-10.86-4.34-14.38c-2.77-2.36-62.7-54.44-36.67-122.59
				c34.91,35.43,129.9,118.84,244.44,112.39c4.13-0.24,7.96-2.32,10.4-5.66c2.44-3.34,3.27-7.61,2.25-11.64
				c-2.15-8.39-3.23-17.09-3.23-25.82c0-57.18,46.53-103.71,103.74-103.71c28.03,0,54.28,11,73.95,30.98
				c2.55,2.58,6.02,4.08,9.65,4.13l2.14,0.01c10.19,0,26.17-1.23,44.49-7.14c-5.87,6.2-13.49,13.19-23.38,20.83
				c-4.85,3.76-6.66,10.25-4.45,15.96c2.21,5.73,7.97,9.33,14.02,8.83c2.25-0.18,12.12-1.04,24.34-3.23
				C550.18,161.8,540.38,171.27,527.9,182.6z"/>
		</g>
	</g>
</g>
</svg>
