<?xml version="1.0" encoding="iso-8859-1"?>
<!-- Generator: Adobe Illustrator 19.0.0, SVG Export Plug-In . SVG Version: 6.00 Build 0)  -->
<svg version="1.1" id="Capa_1" xmlns="http://www.w3.org/2000/svg" xmlns:xlink="http://www.w3.org/1999/xlink" x="0px" y="0px"
	 viewBox="0 0 512.004 512.004" style="enable-background:new 0 0 512.004 512.004;" xml:space="preserve">
<g>
	<g>
		<path fill="#f50049" d="M512.002,418.089v-23.395c0-16.291-10.791-30.108-25.6-34.683V307.43c0-0.03,0-0.06,0-0.089v-15.047
			c0-20.011-16.282-36.292-36.292-36.292h-14.908V206.96c0-19.424-15.341-35.331-34.542-36.248
			c-2.614-27.331-17.455-41.643-25.191-47.33V92.798c5.85-1.5,11.216-4.541,15.603-8.927c6.443-6.451,10.001-15.019,10.001-24.132
			c0-9.122-3.558-17.69-10.377-24.491l-18.099-16.034c-3.234-2.859-8.09-2.859-11.324,0l-18.475,16.384
			c-6.443,6.451-9.993,15.019-9.993,24.141c0,9.114,3.55,17.681,9.993,24.132c4.386,4.386,9.752,7.427,15.603,8.927v30.62
			c-7.698,5.712-22.538,20.09-25.18,47.251h-43.501c-2.626-27.302-17.455-41.602-25.186-47.285V92.798
			c5.85-1.5,11.217-4.541,15.603-8.927c6.443-6.451,10.001-15.019,10.001-24.132c0-9.122-3.558-17.69-10.377-24.491l-18.099-16.034
			c-3.234-2.859-8.09-2.859-11.324,0l-18.475,16.384c-6.443,6.451-9.992,15.019-9.992,24.141c0,9.114,3.55,17.681,9.992,24.132
			c4.386,4.386,9.752,7.427,15.603,8.927v30.62c-7.698,5.712-22.538,20.09-25.179,47.251h-43.501
			c-2.626-27.302-17.455-41.602-25.186-47.285V92.798c5.85-1.5,11.216-4.541,15.603-8.927c6.443-6.451,10.001-15.019,10.001-24.132
			c0-9.122-3.558-17.69-10.377-24.491l-18.099-16.034c-3.234-2.859-8.09-2.859-11.324,0l-18.475,16.384
			c-6.443,6.451-9.992,15.019-9.992,24.141c0,9.114,3.55,17.681,9.992,24.132c4.386,4.386,9.752,7.427,15.603,8.927v30.62
			c-7.702,5.715-22.555,20.105-25.184,47.296c-19.204,0.913-34.549,16.822-34.549,36.248v49.041H61.894
			c-20.011,0-36.292,16.282-36.292,36.292v14.864c0,0.029,0,0.058,0,0.087v52.766c-14.809,4.575-25.6,18.392-25.6,34.683v23.396
			c0,0.03,0,0.06,0,0.089v68.222c0,4.71,3.823,8.533,8.533,8.533h494.933c4.71,0,8.533-3.823,8.533-8.533v-68.221
			C512.002,418.15,512.002,418.119,512.002,418.089z M42.669,324.136c19.192,10.299,41.748,8.45,59.733-5.559
			c20.762,16.171,47.616,16.154,68.352-0.068c10.564,7.851,24.124,12.237,38.315,12.237c14.225,0,27.819-4.412,38.4-12.297
			c21.845,16.324,54.835,16.435,76.672,0.273c22.741,18.227,54.161,18.261,76.928,0.094c11.366,9.071,24.747,13.986,38.4,13.986
			c10.368,0,20.575-2.851,29.867-8.186v33.786H42.669V324.136z M349.873,59.738c0-4.565,1.775-8.849,4.625-11.716l12.442-11.025
			l12.066,10.667c3.226,3.226,5,7.509,5,12.075c0,4.557-1.775,8.841-5,12.066c-6.451,6.443-17.69,6.443-24.141,0
			C351.648,68.579,349.873,64.295,349.873,59.738z M366.979,138.335c5.282,4.326,14.302,14.199,16.521,32.333h-33.118
			C352.626,152.671,361.646,142.739,366.979,138.335z M238.94,59.738c0-4.565,1.775-8.849,4.625-11.716l12.442-11.025l12.066,10.667
			c3.226,3.226,5,7.509,5,12.075c0,4.557-1.775,8.841-5,12.066c-6.451,6.443-17.69,6.443-24.141,0
			C240.715,68.579,238.94,64.295,238.94,59.738z M256.046,138.335c5.282,4.326,14.302,14.199,16.521,32.333h-33.118
			C241.693,152.671,250.712,142.739,256.046,138.335z M128.006,59.738c0-4.565,1.775-8.849,4.625-11.716l12.442-11.025
			l12.066,10.667c3.226,3.226,5.001,7.509,5.001,12.075c0,4.557-1.775,8.841-5.001,12.066c-6.451,6.443-17.69,6.443-24.141,0
			C129.781,68.579,128.006,64.295,128.006,59.738z M145.112,138.335c5.282,4.326,14.302,14.199,16.521,32.333h-33.118
			C130.759,152.671,139.779,142.739,145.112,138.335z M113.094,187.735h6.375h51.2h59.733h51.2h59.733h51.2h6.374
			c10.598,0,19.226,8.627,19.226,19.226v2.821c-18.287,16.807-35.423,16.071-53.697-2.203c-3.337-3.336-8.738-3.336-12.066,0
			c-16.811,16.802-39.398,16.802-56.201,0c-3.337-3.336-8.738-3.336-12.066,0c-16.811,16.802-39.398,16.802-56.201,0
			c-3.336-3.336-8.738-3.336-12.066,0c-16.811,16.802-39.398,16.802-56.201,0c-3.336-3.336-8.738-3.336-12.066,0
			c-15.992,15.984-37.21,16.75-53.704,2.322v-2.94C93.869,196.362,102.496,187.735,113.094,187.735z M93.869,230.544
			c19.193,10.301,41.75,8.452,59.737-5.557c20.727,16.145,47.531,16.145,68.267,0c20.727,16.145,47.531,16.145,68.267,0
			c20.693,16.128,47.437,16.154,68.147,0.085c11.093,9.276,22.596,13.909,34.108,13.909c8.627,0,17.265-2.614,25.742-7.825v24.845
			H93.869V230.544z M61.894,273.068h23.441h341.333h23.441c10.598,0,19.226,8.627,19.226,19.226v11.384
			c-18.664,16.446-44.226,15.678-62.234-2.33c-3.336-3.328-8.73-3.328-12.066,0c-19.055,19.063-45.679,19.063-64.734,0
			c-3.336-3.328-8.73-3.328-12.066,0c-16.597,16.589-48.051,16.503-64.734-0.179c-3.337-3.337-8.73-3.337-12.066,0
			c-7.953,7.953-19.746,12.51-32.367,12.51c-12.621,0-24.414-4.557-32.367-12.51c-3.337-3.337-8.73-3.337-12.066,0
			c-16.811,16.811-39.39,16.811-56.201,0c-3.336-3.337-8.73-3.337-12.066,0c-15.992,15.992-37.2,16.759-53.7,2.325v-11.2
			C42.669,281.695,51.296,273.068,61.894,273.068z M36.294,375.468H475.71c10.598,0,19.226,8.627,19.226,19.226v19.729
			c-16.5,14.434-37.708,13.667-53.7-2.325c-3.337-3.328-8.73-3.328-12.066,0c-19.055,19.063-45.679,19.063-64.734,0
			c-3.337-3.328-8.73-3.328-12.066,0c-19.055,19.063-45.679,19.063-64.734,0c-3.337-3.328-8.73-3.328-12.066,0
			c-16.811,16.811-39.39,16.811-56.201,0c-3.336-3.328-8.73-3.328-12.066,0c-16.811,16.811-39.39,16.811-56.201,0
			c-3.337-3.328-8.73-3.328-12.066,0c-16.811,16.811-39.39,16.811-56.201,0c-3.337-3.328-8.73-3.328-12.066,0
			c-15.992,15.992-37.2,16.759-53.7,2.325v-19.729C17.069,384.095,25.696,375.468,36.294,375.468z M17.069,477.868v-42.795
			c19.192,10.298,41.748,8.448,59.733-5.568c20.275,15.795,47.991,15.795,68.267,0c20.727,16.162,47.539,16.162,68.267,0
			c20.267,15.778,47.94,15.787,68.224,0.034c23.236,18.577,53.598,18.594,76.843,0.026c11.366,9.071,24.747,13.986,38.4,13.986
			c13.67,0,27.068-4.924,38.434-14.012c17.983,13.987,40.52,15.828,59.699,5.535v42.794H17.069z"/>
	</g>
</g>
</svg>
